inDegrees=yes
name=ik_lifting_orientations
DataType=double
version=3
OpenSimVersion=4.5-2024-01-10-34fd6af
endheader
time	pelvis_tilt	pelvis_list	pelvis_rotation	pelvis_tx	pelvis_ty	pelvis_tz	hip_flexion_r	hip_adduction_r	hip_rotation_r	knee_angle_r	knee_angle_r_beta	ankle_angle_r	subtalar_angle_r	mtp_angle_r	hip_flexion_l	hip_adduction_l	hip_rotation_l	knee_angle_l	knee_angle_l_beta	ankle_angle_l	subtalar_angle_l	mtp_angle_l	lumbar_extension	lumbar_bending	lumbar_rotation	arm_flex_r	arm_add_r	arm_rot_r	elbow_flex_r	pro_sup_r	wrist_flex_r	wrist_dev_r	arm_flex_l	arm_add_l	arm_rot_l	elbow_flex_l	pro_sup_l	wrist_flex_l	wrist_dev_l
2.4	0.358320239246294	0.2349372457059332	-112.9505256184178	0	0.9399999998679526	0	44.99730849567155	-10.03586126707915	0	59.99870996479238	1.047175035834758	-5.006787232414114	0	0	44.99730849567155	-10.03586126707915	0	59.99870996479238	1.047175035834758	-5.006787232414114	0	0	0.06236716453233118	1.390978817677316	10.74647360911782	179.9392252773085	63.51249221612459	-65.38501152461579	50.31949277301761	1.01670554687403	0	0	0	-12.64845839648608	0	89.00332108038113	1.01670554687403	0	0
2.41	0.3318808716290553	0.2148319135052352	-112.9734167676979	0	0.9399999998679526	0	44.99730633568805	-10.03590981283366	0	59.99870869836469	1.047175013731425	-5.006796785502567	0	0	44.99730633568805	-10.03590981283366	0	59.99870869836469	1.047175013731425	-5.006796785502567	0	0	0.0544137393302826	1.430471308166992	10.13838515829528	179.9410091032577	63.45256828531426	-65.11899113987789	50.39988998015646	1.017365123298744	0	0	0	-12.64720226402837	0	89.00267461091306	1.017365123298744	0	0
2.42	0.3070909401739885	0.2023158610423339	-112.9196865115152	0	0.9399999998679526	0	44.99730309178079	-10.03598684673076	0	59.99870682425082	1.047174981021967	-5.006812345836685	0	0	44.99730309178079	-10.03598684673076	0	59.99870682425082	1.047174981021967	-5.006812345836685	0	0	-0.1905617756618048	1.391211196232722	9.296709417068003	179.9341230847601	64.1605721434787	-64.82716730783947	51.3290197289682	1.01834841441268	0	0	0	-12.64533871737902	0	89.00171085964226	1.01834841441268	0	0
2.43	0.2685665524453249	0.1604610765581667	-113.0571491389817	0	0.9399999998679526	0	44.99730349048986	-10.03595571635885	0	59.99870692000597	1.04717498269321	-5.006804008297706	0	0	44.99730349048986	-10.03595571635885	0	59.99870692000597	1.04717498269321	-5.006804008297706	0	0	-0.605815156617058	1.362471729304392	8.116345488029541	179.9163333171992	64.67985695314086	-64.43748008092	52.28692404495798	1.018264026212997	0	0	0	-12.64545346933451	0	89.00179357038337	1.018264026212997	0	0
2.44	0.2351314667971146	0.1366591842855172	-112.9634464535965	0	0.9399999998679526	0	44.9973040372273	-10.03592139444989	0	59.99870710376422	1.047174985900397	-5.006795057153992	0	0	44.9973040372273	-10.03592139444989	0	59.99870710376422	1.047174985900397	-5.006795057153992	0	0	-1.124367600789701	1.34280830769968	6.561110303644976	179.8779451170018	65.15393875702208	-63.96482751822578	53.30438636474777	1.018134203499385	0	0	0	-12.64565504467471	0	89.00192081277773	1.018134203499385	0	0
2.45	0.2576500915713684	0.1650027790605298	-112.9253732751556	0	0.9399999998679526	0	44.9973019635042	-10.03596529909964	0	59.99870586664318	1.047174964308561	-5.006803438518199	0	0	44.9973019635042	-10.03596529909964	0	59.99870586664318	1.047174964308561	-5.006803438518199	0	0	-1.259310991002829	1.36351126515443	5.920660154976049	179.8584384359227	65.23820108693504	-63.47131776947205	53.71364773075076	1.01877224907275	0	0	0	-12.64443389217374	0	89.00129544623466	1.01877224907275	0	0
2.46	0.2625217027810238	0.1843968829029445	-112.8927166886773	0	0.9399999998679526	0	44.99729989169101	-10.03600880828051	0	59.9987046275492	1.047174942682292	-5.006811707436374	0	0	44.99729989169101	-10.03600880828051	0	59.9987046275492	1.047174942682292	-5.006811707436374	0	0	-1.131729938666352	1.419050045073355	5.801836844838083	179.8805419435209	64.71242638996912	-63.01450758686572	52.84796593940954	1.019410314851562	0	0	0	-12.64321195210791	0	89.00067005987758	1.019410314851562	0	0
2.47	0.4067193237122012	0.2697284419423426	-112.9685594277015	0	0.9399999998679526	0	44.99730112319808	-10.03594053296005	0	59.99870509878662	1.047174950906936	-5.006794230555676	0	0	44.99730112319808	-10.03594053296005	0	59.99870509878662	1.047174950906936	-5.006794230555676	0	0	-0.6306060962549571	1.377200808185792	6.328378261335289	179.9149443261751	63.08276243652951	-62.42972829417149	50.0591517911697	1.019102680531807	0	0	0	-12.64371371752248	0	89.00097158001245	1.019102680531807	0	0
2.48	0.5174062110148419	0.335720557777447	-112.9840604596864	0	0.9399999998679526	0	44.99730084332351	-10.03592332943455	0	59.99870478609608	1.047174945449457	-5.006788516068588	0	0	44.99730084332351	-10.03592332943455	0	59.99870478609608	1.047174945449457	-5.006788516068588	0	0	0.02503564391990892	1.377054129949482	6.494777260488217	179.9388902531161	61.73289690071825	-62.17429214537194	47.87604910601238	1.019227937426302	0	0	0	-12.64342617458446	0	89.00084881164268	1.019227937426302	0	0
2.49	0.5615698754616684	0.3918539900529627	-112.9492209734672	0	0.9399999998679526	0	44.9972994463295	-10.03594412281728	0	59.9987039031647	1.047174930039397	-5.006791539080765	0	0	44.9972994463295	-10.03594412281728	0	59.9987039031647	1.047174930039397	-5.006791539080765	0	0	0.5588878638299598	1.426686678692429	6.573357711208249	179.9514884765018	60.65731417846597	-61.87026191365048	45.96539084780677	1.01967194209392	0	0	0	-12.64255937576144	0	89.00041362989509	1.01967194209392	0	0
2.5	0.6531280081492939	0.4289614102987066	-113.0361091673053	0	0.9399999998679526	0	44.99729523198337	-10.0360535265006	0	59.99870153783013	1.047174888756521	-5.006814450943198	0	0	44.99729523198337	-10.0360535265006	0	59.99870153783013	1.047174888756521	-5.006814450943198	0	0	0.7535981729059843	1.360992943176377	6.461723848695213	179.9533465596017	61.08744424707565	-61.56584396631883	45.70061365956774	1.020931812819559	0	0	0	-12.64019418365129	0	88.99917879541781	1.020931812819559	0	0
2.51	0.6717837519039253	0.4402123500121399	-113.3372836463455	0	0.9399999998679526	0	44.99729372129199	-10.03606881211633	0	59.99870053968402	1.047174871335585	-5.006815577671047	0	0	44.99729372129199	-10.03606881211633	0	59.99870053968402	1.047174871335585	-5.006815577671047	0	0	0.3383913625936869	1.29503291348252	5.894618488959326	179.9443004561905	62.58290998044036	-61.1777541544523	46.95644967622846	1.02142376447751	0	0	0	-12.63921996955107	0	88.99869661928551	1.02142376447751	0	0
2.52	0.7007804164120447	0.4564584437443068	-113.749582789649	0	0.9399999998679526	0	44.99729247950214	-10.03607715681273	0	59.9986996915774	1.047174856533332	-5.006815259051377	0	0	44.99729247950214	-10.03607715681273	0	59.9986996915774	1.047174856533332	-5.006815259051377	0	0	-0.04035267431489589	1.245135050830281	5.371796682756599	179.9320701889978	64.10504933756762	-60.82506134627299	48.25888842397654	1.021835346336865	0	0	0	-12.6383965857395	0	88.99829321583543	1.021835346336865	0	0
2.53	0.7832384751157174	0.4988830304494832	-114.4354842873645	0	0.9399999998679526	0	44.99729048886201	-10.03611838660987	0	59.99869851558533	1.047174836008398	-5.006822958331044	0	0	44.99729048886201	-10.03611838660987	0	59.99869851558533	1.047174836008398	-5.006822958331044	0	0	-0.1343861791938358	1.147350669887605	5.695636075718951	179.9251707821274	64.96615614388678	-60.2631925877739	48.89794327837776	1.022447193091994	0	0	0	-12.63722727378728	0	88.99769352751014	1.022447193091994	0	0
2.54	0.8678191580592234	0.5503547013312944	-115.3786544412482	0	0.9399999998679526	0	44.99728726562491	-10.03619492724666	0	59.99869666502527	1.047174803710032	-5.006838341138685	0	0	44.99728726562491	-10.03619492724666	0	59.99869666502527	1.047174803710032	-5.006838341138685	0	0	0.04236980268483889	1.134768549271077	6.945942348998375	179.9293670872258	65.24034081457685	-59.88652053072755	48.63562980353024	1.023422001620518	0	0	0	-12.63538344839517	0	88.99673809029063	1.023422001620518	0	0
2.55	0.9620873136352741	0.610348917377584	-116.0386119313576	0	0.9399999998679526	0	44.99728539218022	-10.03622626707749	0	59.9986955086223	1.047174783526993	-5.006843383009361	0	0	44.99728539218022	-10.03622626707749	0	59.9986955086223	1.047174783526993	-5.006843383009361	0	0	0.3107623706965321	1.080565820509444	8.242466724103581	179.9358916167907	65.23173924740043	-59.24129789196058	47.81764137194472	1.024010513962727	0	0	0	-12.63424317701356	0	88.99616127250293	1.024010513962727	0	0
2.56	1.028705030031069	0.6547632859239437	-115.9455512015484	0	0.9399999998679526	0	44.99728196009364	-10.03631068435756	0	59.99869355260456	1.047174749388043	-5.006860628325267	0	0	44.99728196009364	-10.03631068435756	0	59.99869355260456	1.047174749388043	-5.006860628325267	0	0	0.3587807626754041	1.03751045735501	8.50590071547674	179.9347594995899	65.48632930501994	-58.62155944764397	47.6129433859656	1.025043654441631	0	0	0	-12.6322949568157	0	88.99514866256479	1.025043654441631	0	0
2.57	1.079914507657848	0.6782120174080396	-115.1818682618042	0	0.9399999998679526	0	44.99727863236767	-10.03638427088196	0	59.9986916020518	1.047174715344475	-5.006874909097185	0	0	44.99727863236767	-10.03638427088196	0	59.9986916020518	1.047174715344475	-5.006874909097185	0	0	0.3482229796065838	0.914962726489681	7.684923419491367	179.9290085393165	65.97651545286395	-58.13878005301893	47.70976450414766	1.026059384364865	0	0	0	-12.63036207922853	0	88.99415311699681	1.026059384364865	0	0
2.58	1.098904780083276	0.7013465882710753	-114.1690053886657	0	0.9399999998679526	0	44.9972746396343	-10.03647533221645	0	59.99868928462635	1.047174674897771	-5.006892838347838	0	0	44.9972746396343	-10.03647533221645	0	59.99868928462635	1.047174674897771	-5.006892838347838	0	0	0.1517221566727409	0.8223914496625762	6.250590035427016	179.9134237577395	66.80536769464707	-57.70409648650681	48.2923937868587	1.027272699655707	0	0	0	-12.62806015238386	0	88.99296391251035	1.027272699655707	0	0
2.59	1.142036224050971	0.7399371934689213	-113.5319348271406	0	0.9399999998679526	0	44.9972699487105	-10.03658916424421	0	59.99868659136646	1.047174627891518	-5.006915959631012	0	0	44.9972699487105	-10.03658916424421	0	59.99868659136646	1.047174627891518	-5.006915959631012	0	0	-0.03698653129283643	0.7653326254365275	5.130996207007561	179.8923582562224	67.72785309156475	-57.28999672136377	49.13771681320777	1.028687616208857	0	0	0	-12.62538833454991	0	88.99157711308831	1.028687616208857	0	0
